<svg width="17" height="17" viewBox="0 0 17 17" fill="none" xmlns="http://www.w3.org/2000/svg">
<path d="M1.75962 0.894737H6.05311C6.53077 0.894737 6.91799 1.28196 6.91799 1.75962V6.05311C6.91799 6.53077 6.53077 6.91799 6.05311 6.91799H1.75962C1.28196 6.91799 0.894737 6.53077 0.894737 6.05311V1.75962C0.894737 1.28196 1.28196 0.894737 1.75962 0.894737Z" stroke="white" stroke-width="1.78947"/>
<mask id="path-2-inside-1_42_83" fill="white">
<rect x="9.18738" width="7.81273" height="7.81273" rx="1.75962"/>
</mask>
<rect x="9.18738" width="7.81273" height="7.81273" rx="1.75962" stroke="white" stroke-width="3.57895" mask="url(#path-2-inside-1_42_83)"/>
<mask id="path-3-inside-2_42_83" fill="white">
<rect y="9.18731" width="7.81273" height="7.81273" rx="1.75962"/>
</mask>
<rect y="9.18731" width="7.81273" height="7.81273" rx="1.75962" stroke="white" stroke-width="3.57895" mask="url(#path-3-inside-2_42_83)"/>
<path d="M10.947 10.082H15.2405C15.7181 10.082 16.1054 10.4693 16.1054 10.9469V15.2404C16.1054 15.7181 15.7181 16.1053 15.2405 16.1053H10.947C10.4693 16.1053 10.0821 15.7181 10.0821 15.2404V10.9469C10.0821 10.4693 10.4693 10.082 10.947 10.082Z" stroke="white" stroke-width="1.78947"/>
</svg>
